<?xml version="1.0" encoding="UTF-8" standalone="no"?>
<!DOCTYPE svg PUBLIC "-//W3C//DTD SVG 1.1//EN" "http://www.w3.org/Graphics/SVG/1.1/DTD/svg11.dtd">
<svg width="100%" height="100%" viewBox="0 0 512 207" version="1.1" xmlns="http://www.w3.org/2000/svg" xmlns:xlink="http://www.w3.org/1999/xlink" xml:space="preserve" xmlns:serif="http://www.serif.com/" style="fill-rule:evenodd;clip-rule:evenodd;stroke-linejoin:round;stroke-miterlimit:2;">
    <g transform="matrix(2.06203,0,0,-2.06203,-331.16,967.569)">
        <g id="g70">
            <g id="g8">
                <g id="g4234">
                    <g id="g4161">
                        <g id="g4216" transform="matrix(0.754368,0,0,0.754368,-1.90377,167.667)">
                            <g id="path78" transform="matrix(1,0,0,1,348.915,307.372)">
                                <path id="path11" d="M0,0C-11.944,0 -21.662,9.718 -21.662,21.662C-21.662,33.605 -11.944,43.323 0,43.323C3.834,43.323 7.602,42.308 10.896,40.386C12.225,39.612 12.673,37.906 11.898,36.578C11.124,35.25 9.418,34.796 8.09,35.576C5.646,37 2.85,37.752 0,37.752C-8.873,37.752 -16.091,30.535 -16.091,21.662C-16.091,12.789 -8.873,5.571 0,5.571C1.539,5.571 2.786,4.324 2.786,2.786C2.786,1.247 1.539,0 0,0" style="fill:rgb(82,180,74);fill-rule:nonzero;"/>
                            </g>
                            <g id="path82" transform="matrix(1,0,0,1,337.201,311.444)">
                                <path id="path14" d="M0,0C-0.605,0 -1.214,0.196 -1.725,0.601C-6.264,4.191 -9.132,9.333 -9.802,15.08C-10.471,20.828 -8.863,26.492 -5.273,31.029C-1.684,35.566 3.458,38.434 9.206,39.105C14.963,39.773 20.618,38.166 25.155,34.576C28.16,32.199 30.484,29.065 31.877,25.513C32.439,24.082 31.733,22.465 30.301,21.904C28.868,21.342 27.252,22.048 26.692,23.48C25.658,26.115 23.932,28.441 21.699,30.208C18.328,32.875 14.123,34.061 9.851,33.572C5.582,33.074 1.762,30.944 -0.905,27.574C-3.573,24.202 -4.767,19.995 -4.269,15.726C-3.772,11.457 -1.641,7.636 1.729,4.97C2.937,4.015 3.141,2.264 2.187,1.058C1.637,0.363 0.823,0 0,0" style="fill:rgb(82,180,74);fill-rule:nonzero;"/>
                            </g>
                            <g id="path86" transform="matrix(1,0,0,1,364.51,307.412)">
                                <path id="path17" d="M0,0L-94.699,0C-96.238,0 -97.485,1.247 -97.485,2.786C-97.485,4.324 -96.238,5.571 -94.699,5.571L0,5.571C1.539,5.571 2.786,4.324 2.786,2.786C2.786,1.247 1.539,0 0,0" style="fill:rgb(82,180,74);fill-rule:nonzero;"/>
                            </g>
                            <g id="path90" transform="matrix(1,0,0,1,296.558,345.124)">
                                <path id="path20" d="M0,0C-8.873,0 -16.091,-7.218 -16.091,-16.091C-16.091,-24.964 -8.873,-32.182 0,-32.182C8.873,-32.182 16.091,-24.964 16.091,-16.091C16.091,-10.387 13.025,-5.055 8.091,-2.178C5.646,-0.753 2.849,0 0,0M0,-37.752C-11.944,-37.752 -21.662,-28.034 -21.662,-16.091C-21.662,-4.147 -11.944,5.571 0,5.571C3.834,5.571 7.601,4.555 10.897,2.635C17.536,-1.238 21.662,-8.412 21.662,-16.091C21.662,-28.034 11.943,-37.752 0,-37.752" style="fill:rgb(82,180,74);fill-rule:nonzero;"/>
                            </g>
                            <g id="path94" transform="matrix(1,0,0,1,269.811,307.372)">
                                <path id="path23" d="M0,0C-11.943,0 -21.662,9.718 -21.662,21.662L-21.662,60.632C-21.662,62.17 -20.415,63.417 -18.876,63.417C-17.338,63.417 -16.091,62.17 -16.091,60.632L-16.091,21.662C-16.091,12.789 -8.873,5.571 0,5.571C1.539,5.571 2.786,4.324 2.786,2.786C2.786,1.247 1.539,0 0,0" style="fill:rgb(82,180,74);fill-rule:nonzero;"/>
                            </g>
                            <g id="path98" transform="matrix(1,0,0,1,218.202,294.795)">
                                <path id="path26" d="M0,0C-1.539,0 -2.786,1.247 -2.786,2.786C-2.786,4.324 -1.539,5.571 0,5.571C8.873,5.571 16.091,12.79 16.091,21.663L16.091,53.115C16.091,54.653 17.338,55.9 18.876,55.9C20.415,55.9 21.662,54.653 21.662,53.115L21.662,21.663C21.662,9.718 11.943,0 0,0" style="fill:rgb(82,180,74);fill-rule:nonzero;"/>
                            </g>
                            <g id="path102" transform="matrix(1,0,0,1,293.834,366.289)">
                                <path id="path29" d="M0,0C0,3.01 -2.44,5.45 -5.45,5.45C-8.46,5.45 -10.901,3.01 -10.901,0C-10.901,-3.01 -8.46,-5.451 -5.45,-5.451C-2.44,-5.451 0,-3.01 0,0" style="fill:rgb(82,180,74);fill-rule:nonzero;"/>
                            </g>
                            <g id="path106" transform="matrix(1,0,0,1,310.387,366.289)">
                                <path id="path32" d="M0,0C0,3.01 -2.44,5.45 -5.451,5.45C-8.461,5.45 -10.901,3.01 -10.901,0C-10.901,-3.01 -8.461,-5.451 -5.451,-5.451C-2.44,-5.451 0,-3.01 0,0" style="fill:rgb(82,180,74);fill-rule:nonzero;"/>
                            </g>
                        </g>
                        <g id="g4208" transform="matrix(0.613975,0,0,0.613975,166.696,135.785)">
                            <g id="path110" transform="matrix(1,0,0,1,386.609,422.302)">
                                <path id="path35" d="M0,0L0.021,0L0,0ZM-143.971,12.248L-130.888,1.154C-130.696,0.992 -130.533,0.798 -130.404,0.583L-108.567,-35.811L-104.248,-28.538C-103.828,-27.83 -103.104,-27.402 -102.241,-27.413L-76.77,-27.743C-76.375,-27.749 -75.988,-27.854 -75.647,-28.052L-71.026,-30.727L-57.713,-14.994C-57.423,-14.651 -57.039,-14.399 -56.608,-14.272L-1.934,1.827L3.058,23.22L-3.181,30L-23.888,33.187C-24.578,33.292 -25.182,33.706 -25.53,34.31L-35.108,50.914L-41.768,54.244C-42.142,54.431 -42.458,54.716 -42.683,55.069L-48.968,64.994C-49.155,65.29 -49.272,65.624 -49.312,65.971L-50.561,77.209L-65.181,95.253L-87.266,100.23L-91.62,98.778C-92.21,98.585 -92.853,98.631 -93.402,98.917L-102.322,103.521L-108.103,98.841C-108.73,98.336 -109.574,98.192 -110.332,98.467L-129.023,105.234L-138.094,104.297C-138.773,104.226 -139.444,104.461 -139.934,104.936L-151.238,115.933L-167.803,111.497L-172.63,105.765C-173.067,105.246 -173.71,104.946 -174.389,104.946L-182.557,104.946L-185.635,93.66L-181.687,90.946C-181.443,90.777 -181.233,90.563 -181.07,90.316L-161.883,61.205C-161.635,60.829 -161.503,60.388 -161.503,59.939L-161.503,52.69L-152.005,44.111C-151.857,43.977 -151.726,43.823 -151.617,43.655L-144.339,32.408C-144.099,32.036 -143.971,31.602 -143.971,31.159L-143.971,12.248ZM-108.557,-42.596C-109.365,-42.596 -110.113,-42.172 -110.528,-41.48L-134.151,-2.108L-147.756,9.43C-148.271,9.867 -148.568,10.507 -148.568,11.183L-148.568,30.48L-155.313,40.902L-165.344,49.962C-165.827,50.398 -166.101,51.019 -166.101,51.668L-166.101,59.25L-184.663,87.411L-189.585,90.795C-190.39,91.349 -190.758,92.352 -190.501,93.294L-186.531,107.85C-186.259,108.851 -185.35,109.544 -184.313,109.544L-175.458,109.544L-170.854,115.012C-170.551,115.372 -170.145,115.63 -169.69,115.751L-151.166,120.713C-150.379,120.923 -149.549,120.706 -148.967,120.14L-137.498,108.981L-128.973,109.862C-128.625,109.898 -128.28,109.856 -127.953,109.737L-109.987,103.232L-104.048,108.04C-103.341,108.613 -102.355,108.714 -101.547,108.295L-92.154,103.447L-88.113,104.794C-87.717,104.928 -87.288,104.948 -86.88,104.856L-63.392,99.563C-62.888,99.45 -62.436,99.17 -62.11,98.768L-46.563,79.581C-46.286,79.239 -46.113,78.824 -46.064,78.387L-44.8,67.007L-39.14,58.071L-32.435,54.717C-32.032,54.516 -31.696,54.201 -31.471,53.81L-22.099,37.563L-1.686,34.422C-1.169,34.344 -0.696,34.091 -0.343,33.708L7.266,25.438C7.78,24.878 7.985,24.099 7.812,23.358L2.239,-0.523C2.051,-1.329 1.443,-1.972 0.65,-2.206L-54.648,-18.489L-68.758,-35.166C-69.478,-36.016 -70.699,-36.229 -71.666,-35.671L-77.431,-32.333L-100.973,-32.028L-106.581,-41.471C-106.994,-42.167 -107.742,-42.594 -108.552,-42.596L-108.557,-42.596Z" style="fill:rgb(82,180,74);fill-rule:nonzero;"/>
                            </g>
                            <g id="path114" transform="matrix(1,0,0,1,291.684,503.676)">
                                <path id="path38" d="M0,0C-9.913,0 -18.789,-5.125 -23.745,-13.709C-28.701,-22.294 -28.701,-32.543 -23.745,-41.126L0,-82.253L23.745,-41.126C28.701,-32.543 28.701,-22.292 23.745,-13.709C18.788,-5.125 9.912,0 0,0M0,-89.151C-0.821,-89.151 -1.581,-88.713 -1.991,-88.002L-27.727,-43.426C-33.514,-33.402 -33.515,-21.434 -27.727,-11.41C-21.94,-1.386 -11.575,4.598 0,4.598C11.575,4.598 21.939,-1.386 27.727,-11.41C33.514,-21.434 33.514,-33.402 27.727,-43.426L1.991,-88.002C1.581,-88.713 0.821,-89.151 0,-89.151" style="fill:rgb(82,180,74);fill-rule:nonzero;"/>
                            </g>
                            <g id="path118" transform="matrix(1,0,0,1,291.684,486.613)">
                                <path id="path41" d="M0,0C-5.921,0 -10.738,-4.816 -10.738,-10.738C-10.738,-16.659 -5.921,-21.476 0,-21.476C5.921,-21.476 10.738,-16.659 10.738,-10.738C10.738,-4.816 5.921,0 0,0M0,-26.073C-8.457,-26.073 -15.335,-19.194 -15.335,-10.738C-15.335,-2.281 -8.457,4.598 0,4.598C8.457,4.598 15.335,-2.281 15.335,-10.738C15.335,-19.194 8.457,-26.073 0,-26.073" style="fill:rgb(82,180,74);fill-rule:nonzero;"/>
                            </g>
                        </g>
                    </g>
                </g>
            </g>
        </g>
    </g>
</svg>
